<svg width="178" height="180" viewBox="0 0 178 180" fill="none" xmlns="http://www.w3.org/2000/svg">
<rect x="140.798" y="1.53687" width="48.6558" height="166.352" transform="rotate(44.5896 140.798 1.53687)" fill="#D9D9D9"/>
<path d="M175.053 25.2257L152.718 2.85596C150.799 1.02271 148.248 0 145.596 0C142.943 0 140.392 1.02271 138.473 2.85596L118.613 22.8073H12.0726C8.87075 22.8073 5.80003 24.0813 3.53598 26.3489C1.27193 28.6166 0 31.6921 0 34.8991V167.908C0 171.115 1.27193 174.191 3.53598 176.458C5.80003 178.726 8.87075 180 12.0726 180H144.871C148.073 180 151.144 178.726 153.408 176.458C155.672 174.191 156.944 171.115 156.944 167.908V57.6316L175.053 39.4939C176.94 37.6009 178 35.035 178 32.3598C178 29.6846 176.94 27.1187 175.053 25.2257ZM89.5183 108.235L64.2262 113.858L70.2625 88.7678L127.909 30.9088L147.406 50.437L89.5183 108.235ZM153.926 43.5447L134.428 24.0165L145.596 12.8316L165.093 32.3598L153.926 43.5447Z" fill="black"/>
</svg>
