<svg width="800" height="800" viewBox="0 0 800 800" fill="none" xmlns="http://www.w3.org/2000/svg">
<path d="M700 100H100V700H700V100Z" fill="#F9EBB2"/>
<path d="M750 0H50C22.3625 0 0 22.3625 0 50V750C0 777.637 22.3625 800 50 800H750C777.637 800 800 777.637 800 750V50C800 22.3625 777.637 0 750 0ZM700 700H100V100H700V700Z" fill="#394240"/>
<path d="M350 250H600C627.637 250 650 227.637 650 200C650 172.363 627.637 150 600 150H350C322.363 150 300 172.363 300 200C300 227.637 322.363 250 350 250Z" fill="#394240"/>
<rect x="167" y="379" width="418" height="35" rx="17.5" fill="white"/>
<rect x="212" y="450" width="421" height="35" rx="17.5" fill="white"/>
<rect x="167" y="521" width="418" height="35" rx="17.5" fill="white"/>
<rect x="212" y="592" width="421" height="35" rx="17.5" fill="white"/>
<path d="M200 250C227.614 250 250 227.614 250 200C250 172.386 227.614 150 200 150C172.386 150 150 172.386 150 200C150 227.614 172.386 250 200 250Z" fill="#394240"/>
</svg>
