<svg width="800" height="800" viewBox="0 0 800 800" fill="none" xmlns="http://www.w3.org/2000/svg">
<path d="M700 100H100V700H700V100Z" fill="black"/>
<path d="M750 0H50C22.3625 0 0 22.3625 0 50V750C0 777.637 22.3625 800 50 800H750C777.637 800 800 777.637 800 750V50C800 22.3625 777.637 0 750 0ZM700 700H100V100H700V700Z" fill="#394240"/>
<path d="M172.481 304.564L369.887 392.57C391.711 402.299 417.241 392.513 426.97 370.69C436.699 348.866 426.913 323.336 405.09 313.607L207.683 225.601C185.86 215.872 160.33 225.658 150.601 247.481C140.872 269.305 150.658 294.835 172.481 304.564Z" fill="white"/>
<path d="M229.008 504.801L411.38 388.807C431.542 375.984 437.479 349.295 424.656 329.134C411.833 308.972 385.144 303.035 364.983 315.858L182.61 431.852C162.449 444.675 156.511 471.364 169.335 491.525C182.158 511.687 208.847 517.624 229.008 504.801Z" fill="white"/>
<path d="M436.286 564H617.714C637.771 564 654 547.899 654 528C654 508.101 637.771 492 617.714 492H436.286C416.229 492 400 508.101 400 528C400 547.899 416.229 564 436.286 564Z" fill="white"/>
</svg>
