<svg width="210" height="178" viewBox="0 0 210 178" fill="none" xmlns="http://www.w3.org/2000/svg">
<rect x="23" y="19" width="164" height="139" fill="white"/>
<path d="M192.5 0.5H17.5C12.9913 0.5 8.6673 2.29106 5.47919 5.47918C2.29107 8.6673 0.5 12.9913 0.5 17.5V160.5C0.5 165.009 2.29107 169.333 5.47919 172.521C8.6673 175.709 12.9913 177.5 17.5 177.5H192.5C197.009 177.5 201.333 175.709 204.521 172.521C207.709 169.333 209.5 165.009 209.5 160.5V17.5C209.5 12.9913 207.709 8.6673 204.521 5.47918C201.333 2.29106 197.009 0.5 192.5 0.5ZM98 95.2L58 127.2C56.5912 128.359 54.8245 128.995 53 129C51.8059 129.008 50.6259 128.742 49.5509 128.221C48.476 127.701 47.5348 126.941 46.8 126C46.1351 125.189 45.6383 124.254 45.3384 123.25C45.0385 122.245 44.9416 121.191 45.0533 120.149C45.165 119.106 45.4831 118.096 45.989 117.178C46.4949 116.26 47.1785 115.451 48 114.8L80.2 89L48 63.2C47.0715 62.585 46.2816 61.783 45.681 60.8452C45.0803 59.9074 44.682 58.8546 44.5116 57.754C44.3413 56.6534 44.4026 55.5294 44.6916 54.4539C44.9807 53.3784 45.4911 52.3751 46.1902 51.5082C46.8893 50.6413 47.7617 49.9299 48.7516 49.4196C49.7414 48.9093 50.8269 48.6112 51.9386 48.5446C53.0503 48.4779 54.1636 48.6441 55.2074 49.0325C56.2511 49.4208 57.2023 50.0229 58 50.8L98 82.8C98.9364 83.5395 99.6932 84.4815 100.214 85.5553C100.734 86.6291 101.004 87.8068 101.004 89C101.004 90.1932 100.734 91.3709 100.214 92.4447C99.6932 93.5185 98.9364 94.4605 98 95.2ZM157 129H117C114.878 129 112.843 128.157 111.343 126.657C109.843 125.157 109 123.122 109 121C109 118.878 109.843 116.843 111.343 115.343C112.843 113.843 114.878 113 117 113H157C159.122 113 161.157 113.843 162.657 115.343C164.157 116.843 165 118.878 165 121C165 123.122 164.157 125.157 162.657 126.657C161.157 128.157 159.122 129 157 129Z" fill="black"/>
</svg>
